<svg width="50" height="49" viewBox="0 0 50 49" fill="none" xmlns="http://www.w3.org/2000/svg">
<g clip-path="url(#clip0)">
<path d="M50 9.46528C46.8548 9.61024 46.9234 9.59841 46.5679 9.62817L48.4306 4.30857C48.4306 4.30857 42.6163 6.44747 41.1423 6.83009C37.2711 3.3507 31.517 3.19697 27.4033 5.72535C24.0345 7.79635 22.2263 11.3528 22.8294 15.5097C16.2731 14.5999 10.7491 11.492 6.38771 6.25292L5.00832 4.5962L3.97758 6.48905C2.67487 8.88087 2.24228 11.6156 2.75917 14.1894C2.97127 15.2453 3.33176 16.2524 3.8311 17.1954L2.64778 16.7369L2.5074 18.714C2.36511 20.7225 3.03383 23.067 4.29649 24.985C4.65202 25.5252 5.10979 26.1183 5.69 26.7035L5.07851 26.6097L5.82466 28.8752C6.80542 31.8518 8.84247 34.1548 11.4861 35.435C8.8459 36.5554 6.7131 37.2702 3.2074 38.4234L0 39.4778L2.96249 41.0975C4.09203 41.7151 8.08334 43.7777 12.027 44.3965C20.7931 45.7713 30.6629 44.6517 37.3074 38.6675C42.9039 33.6272 44.7403 26.4575 44.3588 18.9963C44.3012 17.8668 44.6106 16.7887 45.2301 15.9613C46.471 14.3046 49.9924 9.47634 50 9.46528ZM42.8875 14.2066C41.8587 15.5802 41.3433 17.3346 41.4356 19.1458C41.8205 26.6719 39.7728 32.5083 35.3489 36.4924C30.1811 41.1467 21.8456 42.9736 12.4805 41.5045C10.7845 41.2387 9.03168 40.6432 7.58095 40.0485C10.5202 39.0372 12.7899 38.1358 16.4555 36.4009L21.5725 33.9789L15.9229 33.6173C13.2168 33.4441 10.9634 32.1326 9.57832 30.0032C10.3138 29.9605 11.0229 29.8415 11.729 29.6446L17.1173 28.1439L11.684 26.8134C9.04388 26.1668 7.53899 24.5871 6.74133 23.3756C6.21757 22.5794 5.8754 21.7639 5.67017 21.012C6.2149 21.1581 6.85005 21.2622 7.8743 21.3637L12.9032 21.8611L8.91876 18.7529C6.04782 16.5137 4.89731 13.1495 5.74074 9.91541C14.7007 19.2088 25.2209 18.5103 26.2798 18.756C26.0467 16.492 26.0406 16.4866 25.9796 16.2711C24.6235 11.4772 27.5955 9.04299 28.936 8.21902C31.736 6.49821 36.1805 6.23881 39.2589 9.07389C39.9239 9.68577 40.823 9.92648 41.6645 9.71743C42.4198 9.52975 43.0397 9.331 43.6466 9.11471L42.3832 12.7227L43.996 12.7238C43.6916 13.132 43.3266 13.6206 42.8875 14.2066Z" fill="#2E2F22"/>
</g>
<defs>
<clipPath id="clip0">
<rect width="50" height="48.9229" fill="white"/>
</clipPath>
</defs>
</svg>
